<svg xmlns="http://www.w3.org/2000/svg" viewBox="0 0 640 640"><!--!Font Awesome Free v7.1.0 by @fontawesome - https://fontawesome.com License - https://fontawesome.com/license/free Copyright 2025 Fonticons, Inc.--><path fill="#fff" stroke="#000" stroke-width="10" d="M83.8 541.6c12 5 25.7 2.2 34.9-6.9L288 365.3V512c0 12.9 7.8 24.6 19.8 29.6s25.7 2.2 34.9-6.9L512 365.3V512c0 17.7 14.3 32 32 32s32-14.3 32-32V128c0-17.7-14.3-32-32-32s-32 14.3-32 32v146.7L342.6 105.3c-9.2-9.2-22.9-11.9-34.9-6.9S288 115.1 288 128v146.7L118.6 105.4c-9.2-9.2-22.9-11.9-34.9-6.9S64 115.1 64 128v384c0 12.9 7.8 24.6 19.8 29.6Z"/></svg>