<svg xmlns="http://www.w3.org/2000/svg" xml:space="preserve" id="Capa_1" width="800" height="800" fill="#000" viewBox="0 0 399.193 399.193"><path d="M375.337 97.308c-3.136-4.547-9.364-5.691-13.909-2.557-4.547 3.135-5.692 9.362-2.557 13.909 13.295 19.284 20.322 42.543 20.322 67.264 0 24.627-7.35 48.709-20.694 67.81-3.163 4.527-2.058 10.762 2.47 13.925a9.95 9.95 0 0 0 5.719 1.804 9.99 9.99 0 0 0 8.206-4.273c15.897-22.753 24.3-50.163 24.3-79.265-.001-28.794-8.251-55.979-23.857-78.617"/><path d="M342.47 125.562c-3.134-4.547-9.361-5.692-13.909-2.557s-5.691 9.362-2.556 13.909c7.72 11.197 11.801 24.726 11.801 39.124 0 14.344-4.268 28.352-12.016 39.443-3.163 4.527-2.058 10.762 2.47 13.925a9.96 9.96 0 0 0 5.719 1.803 9.99 9.99 0 0 0 8.206-4.274c10.22-14.627 15.621-32.228 15.621-50.897 0-18.471-5.303-35.925-15.336-50.476M303.027 20.495c-4.954 0-9.532 2.757-13.586 8.167-.328.432-33.738 43.425-117.107 69.128-7.914 2.44-16.663 4.163-16.748 4.18a26.2 26.2 0 0 0-5.707 1.82c-3.508-5.791-9.85-9.681-17.1-9.681H48.635c-11.028 0-20 8.972-20 20v10.979a28 28 0 0 0-4.317-.342C10.909 124.746 0 134.272 0 145.98v55.29c0 11.708 10.909 21.234 24.317 21.234a28 28 0 0 0 4.317-.342v8.979c0 11.028 8.972 20 20 20h2.704L76.731 356.46c3.007 12.47 15.41 22.238 28.237 22.238h26.873c7.017 0 13.365-2.951 17.417-8.096s5.434-12.008 3.789-18.83l-24.262-100.631h3.993c7.253 0 13.597-3.893 17.104-9.687a26.2 26.2 0 0 0 5.698 1.818c.087.017 8.836 1.742 16.748 4.186 83.375 25.756 116.782 68.707 117.09 69.11 4.074 5.433 8.651 8.188 13.604 8.188h.001c4.896 0 9.178-2.776 11.453-7.425 1.307-2.668 1.941-5.862 1.941-9.763V37.681c.002-16.704-12.02-17.186-13.39-17.186M24.317 202.504c-2.463 0-3.935-1.02-4.317-1.5v-54.759c.383-.48 1.854-1.5 4.317-1.5s3.935 1.02 4.317 1.5v54.759c-.382.481-1.854 1.5-4.317 1.5M133.604 356.46c.216.896.127 1.533-.058 1.768s-.783.471-1.705.471h-26.873c-3.662 0-7.936-3.366-8.794-6.926L71.912 251.141h36.3ZM48.635 231.141V114.109h84.145v101.472l.002.071v15.489Zm247.784 63.415c-15.581-15.585-52.326-45.861-118.187-66.207-8.957-2.768-18.415-4.627-18.813-4.706-3.413-.667-6.64-4.585-6.64-8.063v-85.922c0-3.477 3.227-7.394 6.639-8.06.398-.078 9.853-1.935 18.809-4.697 65.854-20.303 102.604-50.591 118.192-66.192Z"/></svg>