<svg xmlns="http://www.w3.org/2000/svg" viewBox="0 0 640 640"><!--!Font Awesome Free v7.1.0 by @fontawesome - https://fontawesome.com License - https://fontawesome.com/license/free Copyright 2025 Fonticons, Inc.--><path d="M210.2 53.9c7.4-3.1 15.8-2.2 22.5 2.2l87.8 58.2 87.8-58.2c6.7-4.4 15.1-5.2 22.5-2.2s12.6 9.6 14.2 17.4l20.9 103.2 103.2 20.9c7.8 1.6 14.4 7 17.4 14.3s2.2 15.8-2.2 22.5L526.1 320l58.2 87.8c4.4 6.7 5.2 15.1 2.2 22.5s-9.6 12.8-17.4 14.3l-103.3 20.8L445 568.7c-1.6 7.8-7 14.4-14.3 17.4s-15.8 2.2-22.5-2.2l-87.8-58.2-87.8 58.2c-6.7 4.4-15.1 5.2-22.5 2.2s-12.8-9.6-14.3-17.4L175 465.4 71.7 444.5c-7.8-1.6-14.4-7-17.4-14.3s-2.2-15.8 2.2-22.5l58.2-87.7-58.2-87.8c-4.4-6.7-5.2-15.1-2.2-22.5s9.6-12.8 17.4-14.3L175 174.6l20.9-103.3c1.6-7.8 7-14.4 14.3-17.4M239.6 320c0-44.4 36-80.4 80.4-80.4s80.4 36 80.4 80.4-36 80.4-80.4 80.4-80.4-36-80.4-80.4m208.8 0c0-70.9-57.5-128.4-128.4-128.4S191.6 249.1 191.6 320 249.1 448.4 320 448.4 448.4 390.9 448.4 320"/></svg>