<?xml version="1.0" encoding="UTF-8"?>
<svg version="1.1" xmlns="http://www.w3.org/2000/svg" width="136" height="136">
<path d="M0 0 C1.44364875 9.15519583 2.46985951 18.15259366 -3.07772827 26.09902954 C-7.47111857 31.50959251 -12.42828051 36.35308087 -17.41796875 41.20703125 C-19.23161453 43.03485323 -21.04213574 44.86578029 -22.84968567 46.69963074 C-26.63603749 50.51680856 -30.45614742 54.29457641 -34.30786133 58.0456543 C-38.73185411 62.35536085 -43.07503686 66.73558212 -47.3839609 71.16010839 C-51.56737464 75.45111345 -55.808307 79.67965076 -60.07647133 83.8866024 C-61.86942215 85.66564748 -63.64719119 87.46014152 -65.40840721 89.2706089 C-80.57273991 104.7650354 -80.57273991 104.7650354 -91.88212299 105.17467022 C-95.99245123 105.05189873 -99.93701763 104.64067657 -104 104 C-105.44364875 94.84480417 -106.46985951 85.84740634 -100.92227173 77.90097046 C-96.52888143 72.49040749 -91.57171949 67.64691913 -86.58203125 62.79296875 C-84.76838547 60.96514677 -82.95786426 59.13421971 -81.15031433 57.30036926 C-77.36396251 53.48319144 -73.54385258 49.70542359 -69.69213867 45.9543457 C-65.26814589 41.64463915 -60.92496314 37.26441788 -56.6160391 32.83989161 C-52.43262536 28.54888655 -48.191693 24.32034924 -43.92352867 20.1133976 C-42.13057785 18.33435252 -40.35280881 16.53985848 -38.59159279 14.7293911 C-26.24857826 2.11769659 -17.81718917 -2.80952624 0 0 Z " fill="#C8AA6E" transform="translate(120,16)"/>
<path d="M0 0 C0 22.77 0 45.54 0 69 C-22.44 69 -44.88 69 -68 69 C-66.02 66.69 -64.04 64.38 -62 62 C-61.37810791 61.13125244 -60.75621582 60.26250488 -60.11547852 59.36743164 C-56.87683621 55.28144201 -54.04578952 52.89090992 -48.81201172 52.28466797 C-43.84384343 52.00484498 -38.90376523 52.21293762 -33.9375 52.4375 C-32.19606735 52.48270887 -30.45452159 52.52376222 -28.71289062 52.56054688 C-24.4724386 52.65908775 -20.2374795 52.81399223 -16 53 C-16.11782837 51.39112915 -16.11782837 51.39112915 -16.23803711 49.74975586 C-18.42340568 17.16603478 -18.42340568 17.16603478 -12.6953125 9.13671875 C-4.24002487 0 -4.24002487 0 0 0 Z " fill="#C8AA6E" transform="translate(120,51)"/>
<path d="M0 0 C22.44 0 44.88 0 68 0 C66.02 2.31 64.04 4.62 62 7 C61.37810791 7.86874756 60.75621582 8.73749512 60.11547852 9.63256836 C56.87683621 13.71855799 54.04578952 16.10909008 48.81201172 16.71533203 C43.84384343 16.99515502 38.90376523 16.78706238 33.9375 16.5625 C32.19606735 16.51729113 30.45452159 16.47623778 28.71289062 16.43945312 C24.4724386 16.34091225 20.2374795 16.18600777 16 16 C16.07855225 17.0422876 16.15710449 18.0845752 16.23803711 19.15844727 C18.42336654 50.82661913 18.42336654 50.82661913 12.6953125 58.796875 C9.21170929 62.55446472 5.41181828 65.41411345 1 68 C0.67 68 0.34 68 0 68 C0 45.56 0 23.12 0 0 Z " fill="#C8AA6E" transform="translate(16,16)"/>
</svg>
