<?xml version="1.0" encoding="UTF-8"?>
<svg version="1.1" xmlns="http://www.w3.org/2000/svg" width="90" height="90">
<path d="M0 0 C2.75 1.25 2.75 1.25 3.75 2.25 C3.83767112 4.32262076 3.85695873 6.39820294 3.84765625 8.47265625 C3.84443359 9.73271484 3.84121094 10.99277344 3.83789062 12.29101562 C3.82953403 13.63151109 3.82106907 14.97200588 3.8125 16.3125 C3.8074866 17.65689942 3.80292342 19.0013006 3.79882812 20.34570312 C3.78699488 23.64717941 3.77050971 26.94856803 3.75 30.25 C4.99873901 30.21072388 4.99873901 30.21072388 6.27270508 30.1706543 C9.3644369 30.08539045 12.4555695 30.02273248 15.5480957 29.9753418 C17.54353555 29.93785626 19.53843052 29.87432465 21.53320312 29.81054688 C23.41362305 29.78637695 23.41362305 29.78637695 25.33203125 29.76171875 C26.48936768 29.73553467 27.6467041 29.70935059 28.83911133 29.68237305 C31.75 30.25 31.75 30.25 33.69799805 32.57739258 C34.75 35.25 34.75 35.25 34 38.5 C32.75 41.25 32.75 41.25 31.75 42.25 C29.67737924 42.33767112 27.60179706 42.35695873 25.52734375 42.34765625 C24.26728516 42.34443359 23.00722656 42.34121094 21.70898438 42.33789062 C20.36848891 42.32953403 19.02799412 42.32106907 17.6875 42.3125 C16.34310058 42.3074866 14.9986994 42.30292342 13.65429688 42.29882812 C10.35282059 42.28699488 7.05143197 42.27050971 3.75 42.25 C3.77618408 43.08249268 3.80236816 43.91498535 3.8293457 44.77270508 C3.91460955 47.8644369 3.97726752 50.9555695 4.0246582 54.0480957 C4.06214374 56.04353555 4.12567535 58.03843052 4.18945312 60.03320312 C4.20556641 61.28681641 4.22167969 62.54042969 4.23828125 63.83203125 C4.26446533 64.98936768 4.29064941 66.1467041 4.31762695 67.33911133 C3.75 70.25 3.75 70.25 1.42260742 72.19799805 C-1.25 73.25 -1.25 73.25 -4.5 72.5 C-7.25 71.25 -7.25 71.25 -8.25 70.25 C-8.33767112 68.17737924 -8.35695873 66.10179706 -8.34765625 64.02734375 C-8.34443359 62.76728516 -8.34121094 61.50722656 -8.33789062 60.20898438 C-8.32953403 58.86848891 -8.32106907 57.52799412 -8.3125 56.1875 C-8.3074866 54.84310058 -8.30292342 53.4986994 -8.29882812 52.15429688 C-8.28699488 48.85282059 -8.27050971 45.55143197 -8.25 42.25 C-9.49873901 42.28927612 -9.49873901 42.28927612 -10.77270508 42.3293457 C-13.8644369 42.41460955 -16.9555695 42.47726752 -20.0480957 42.5246582 C-22.04353555 42.56214374 -24.03843052 42.62567535 -26.03320312 42.68945312 C-27.28681641 42.70556641 -28.54042969 42.72167969 -29.83203125 42.73828125 C-30.98936768 42.76446533 -32.1467041 42.79064941 -33.33911133 42.81762695 C-36.25 42.25 -36.25 42.25 -38.19799805 39.92260742 C-39.25 37.25 -39.25 37.25 -38.5 34 C-37.25 31.25 -37.25 31.25 -36.25 30.25 C-34.17737924 30.16232888 -32.10179706 30.14304127 -30.02734375 30.15234375 C-28.76728516 30.15556641 -27.50722656 30.15878906 -26.20898438 30.16210938 C-24.86848891 30.17046597 -23.52799412 30.17893093 -22.1875 30.1875 C-20.84310058 30.1925134 -19.4986994 30.19707658 -18.15429688 30.20117188 C-14.85282059 30.21300512 -11.55143197 30.22949029 -8.25 30.25 C-8.27618408 29.41750732 -8.30236816 28.58501465 -8.3293457 27.72729492 C-8.41460955 24.6355631 -8.47726752 21.5444305 -8.5246582 18.4519043 C-8.56214374 16.45646445 -8.62567535 14.46156948 -8.68945312 12.46679688 C-8.70556641 11.21318359 -8.72167969 9.95957031 -8.73828125 8.66796875 C-8.76446533 7.51063232 -8.79064941 6.3532959 -8.81762695 5.16088867 C-8.25 2.25 -8.25 2.25 -5.92260742 0.30200195 C-3.25 -0.75 -3.25 -0.75 0 0 Z " fill="#000000" transform="translate(47.25,8.75)"/>
</svg>
