<?xml version="1.0" encoding="UTF-8"?>
<svg id="_레이어_2" data-name="레이어 2" xmlns="http://www.w3.org/2000/svg" viewBox="0 0 332.19 68.92">
    <defs>
        <style>
            .cls-1 {
            stroke: #ff0;
            }

            .cls-1, .cls-2 {
            fill: none;
            stroke-miterlimit: 10;
            stroke-width: 2px;
            }

            .cls-2 {
            stroke: aqua;
            }

            path {
            filter: url(#glow);
            }
        </style>
        <filter id="glow" x="-50%" y="-50%" width="200%" height="200%">
            <feGaussianBlur stdDeviation="3" result="coloredBlur"/>
            <feMerge>
                <feMergeNode in="coloredBlur"/>
                <feMergeNode in="SourceGraphic"/>
            </feMerge>
        </filter>
    </defs>
    <g id="layer1">
        <g>
            <g>
                <path class="cls-2"
                      d="M18.17,15.44h1.66v-2.74h1.62v-3.13h1.55v-2.95h1.62v-3.49h2.09v-1.69h5.04v1.73h1.73v28.87h-1.73v1.76h-4.54v-1.76h-1.76v-11.2h-1.22v2.05h-1.08v2.2h-1.22v2.27h-1.4v2.41h-1.55v1.66h-3.46v-1.66h-1.51v-2.41h-1.4v-2.27h-1.22v-2.2h-1.12v-2.05h-1.22v11.2h-1.73v1.76H2.73v-1.76h-1.73V3.16h1.73v-1.73h5.04v1.69h2.09v3.49h1.62v2.95h1.55v3.13h1.62v2.74h1.66v2.34h1.87v-2.34Z"/>
                <path class="cls-2"
                      d="M58.89,11.44v20.77h-1.4v1.58h-16.78v-1.4h-1.62v-1.55h-1.55v-1.73h-1.4v-7.24h1.4v-1.73h1.55v-1.55h1.62v-1.4h10.4v-2.27h-11.74v-1.58h-1.48v-3.78h1.48v-1.55h16.27v1.58h1.58v1.84h1.66ZM51.11,23.32h-5.69v1.22h-1.3v1.76h1.3v1.22h5.69v-4.21Z"/>
                <path class="cls-2"
                      d="M72.31,20.48h-1.98v11.88h-1.44v1.44h-5.69v-1.44h-1.44V9.35h1.44v-1.33h5.58v1.33h1.44v2.16h1.3v-2.16h1.4v-1.33h5.65v1.4h1.4v4.82h-1.51v1.48h-2.09v1.55h-2.05v1.55h-2.02v1.66Z"/>
                <path class="cls-2"
                      d="M83.37,32.36h-1.44V2.44h1.55v-1.44h5.08v1.44h1.51v7.6h9.54v1.66h1.66v1.76h1.58v1.98h1.44v12.96h-1.44v1.98h-1.58v1.76h-1.66v1.66h-16.24v-1.44ZM94.78,26.56v-1.48h1.37v-6.34h-1.37v-1.48h-4.93v9.29h4.93Z"/>
                <path class="cls-2" d="M108.6,33.8v-1.44h-1.44V2.44h1.44v-1.44h5.51v1.44h1.44v29.92h-1.44v1.44h-5.51Z"/>
                <path class="cls-2"
                      d="M140.93,12.81v9.83h-1.44v1.44h-13.07v1.4h1.73v1.48h10.51v1.51h1.51v3.92h-1.51v1.4h-14.83v-1.48h-1.87v-1.58h-1.76v-1.73h-1.66V12.81h1.66v-1.73h1.76v-1.55h1.87v-1.51h11.81v1.51h1.87v1.55h1.76v1.73h1.66ZM133.23,17.7v-1.73h-1.51v-1.22h-3.78v1.22h-1.51v1.73h6.8Z"/>
                <path class="cls-2"
                      d="M172.97,22.78h1.91v1.94h1.94v1.91h1.84v5.44h-1.84v1.69h-5.51v-1.69h-1.87v-1.91h-1.8v-1.98h-1.66v-2.02h-1.62v-1.98h-1.94v7.96h-1.73v1.66h-5v-1.66h-1.73V3.16h1.73v-1.73h17.5v1.73h1.94v1.84h1.84v2.12h1.44v10.04h-1.66v2.02h-1.84v1.94h-1.94v1.66ZM168.11,17.06v-1.76h1.76v-4.86h-1.76v-1.76h-5.72v8.39h5.72Z"/>
                <path class="cls-2"
                      d="M181.39,13.42h1.48v-1.98h1.58v-1.76h1.66v-1.66h12.85v1.66h1.66v1.76h1.58v1.98h1.51v14.98h-1.51v1.98h-1.58v1.76h-1.66v1.66h-12.85v-1.66h-1.66v-1.76h-1.58v-1.98h-1.48v-14.98ZM195.83,16.73h-1.76v-1.48h-3.06v1.48h-1.73v8.35h1.73v1.48h3.06v-1.48h1.76v-8.35Z"/>
                <path class="cls-2"
                      d="M222.61,9.42v-1.44h5.26v1.44h1.44v22.72h-1.51v1.66h-4.97v-1.66h-1.73v1.66h-9.25v-1.66h-1.87v-1.94h-1.84v-2.09h-1.62V9.42h1.44v-1.44h5.22v1.44h1.44v15.01h1.66v1.84h3.24v-1.84h1.66v-15.01h1.44Z"/>
                <path class="cls-2"
                      d="M233.77,33.8v-1.44h-1.44V2.44h1.44v-1.44h5.51v1.44h1.44v29.92h-1.44v1.44h-5.51Z"/>
                <path class="cls-2"
                      d="M266.1,12.81v9.83h-1.44v1.44h-13.07v1.4h1.73v1.48h10.51v1.51h1.51v3.92h-1.51v1.4h-14.83v-1.48h-1.87v-1.58h-1.76v-1.73h-1.66V12.81h1.66v-1.73h1.76v-1.55h1.87v-1.51h11.81v1.51h1.87v1.55h1.76v1.73h1.66ZM258.4,17.7v-1.73h-1.51v-1.22h-3.78v1.22h-1.51v1.73h6.8Z"/>
                <path class="cls-2"
                      d="M282.59,25.48v1.3h2.59v1.55h1.51v4h-1.51v1.48h-8.78v-1.4h-1.84v-1.48h-1.69v-15.41h-3.49v-1.44h-1.44v-4.64h1.44v-1.44h3.49V2.44h1.4v-1.44h5.65v1.44h1.37v5.54h4.03v1.44h1.44v4.64h-1.44v1.44h-4.03v9.97h1.3Z"/>
                <path class="cls-2"
                      d="M302.53,25.48v1.3h2.59v1.55h1.51v4h-1.51v1.48h-8.78v-1.4h-1.84v-1.48h-1.69v-15.41h-3.49v-1.44h-1.44v-4.64h1.44v-1.44h3.49V2.44h1.4v-1.44h5.65v1.44h1.37v5.54h4.03v1.44h1.44v4.64h-1.44v1.44h-4.03v9.97h1.3Z"/>
                <path class="cls-2"
                      d="M331.19,12.81v9.83h-1.44v1.44h-13.07v1.4h1.73v1.48h10.51v1.51h1.51v3.92h-1.51v1.4h-14.83v-1.48h-1.87v-1.58h-1.76v-1.73h-1.66V12.81h1.66v-1.73h1.76v-1.55h1.87v-1.51h11.81v1.51h1.87v1.55h1.76v1.73h1.66ZM323.48,17.7v-1.73h-1.51v-1.22h-3.78v1.22h-1.51v1.73h6.8Z"/>
            </g>
            <g>
                <path class="cls-1"
                      d="M119.48,54.75h2.02v-1.84h1.98v-1.73h1.8v-1.69h1.55v-1.62h1.51v-2.99h-1.62v-1.55h-9.58v-1.55h-1.69v-4.28h1.69v-1.51h14.65v1.44h1.87v1.76h1.84v1.84h1.66v10.26h-1.84v2.05h-1.91v2.02h-1.98v1.94h-2.05v1.76h-2.16v1.51h9.14v1.48h1.58v4.28h-1.58v1.58h-19.22v-1.58h-1.69v-7.78h2.02v-1.94h2.02v-1.87Z"/>
                <path class="cls-1"
                      d="M159.73,67.92h-12.24v-2.02h-2.09v-2.3h-1.98v-2.63h-1.84v-17.89h1.84v-2.59h1.98v-2.3h2.09v-2.2h12.24v2.2h2.05v2.3h2.02v2.59h1.84v17.89h-1.84v2.63h-2.02v2.3h-2.05v2.02ZM155.12,43.41h-3.06v1.98h-2.2v13.14h2.2v1.94h3.06v-1.94h2.2v-13.14h-2.2v-1.98Z"/>
                <path class="cls-1"
                      d="M173.69,54.75h2.02v-1.84h1.98v-1.73h1.8v-1.69h1.55v-1.62h1.51v-2.99h-1.62v-1.55h-9.58v-1.55h-1.69v-4.28h1.69v-1.51h14.65v1.44h1.87v1.76h1.84v1.84h1.66v10.26h-1.84v2.05h-1.91v2.02h-1.98v1.94h-2.05v1.76h-2.16v1.51h9.14v1.48h1.58v4.28h-1.58v1.58h-19.22v-1.58h-1.69v-7.78h2.02v-1.94h2.02v-1.87Z"/>
                <path class="cls-1"
                      d="M198.39,37.65v-1.66h18.97v1.66h1.66v4.03h-1.66v1.66h-12.38v4.1h9.07v1.66h1.94v1.8h1.84v1.87h1.66v9.83h-1.66v1.87h-1.84v1.73h-1.98v1.73h-16.31v-1.44h-1.62v-4.28h1.62v-1.58h11.63v-1.55h1.33v-2.88h-1.33v-1.51h-10.94v-1.66h-1.66v-15.37h1.66Z"/>
            </g>
        </g>
    </g>
</svg>
